PathFileType        4      (X/Y/Z)      C:\Users\pc\Desktop\IMUTRC\Sujet_03\Sujet_03_velo_60.trc         
DataRate	CameraRate	NumFrames	NumMarkers	Units	OrigDataRate	OrigDataStartFrame	OrigNumFrames
60.0	60.0	4	64	mm	60.0	1	929
Frame#	Time	pHipOrigin			pRightASI			pLeftASI			pRightCSI			pLeftCSI			pRightIschialTub			pLeftIschialTub			pSacrum			pL5SpinalProcess			pL3SpinalProcess			pT12SpinalProcess			pIJ			pT4SpinalProcess			pT8SpinalProcess			pPX			pC7SpinalProcess			pTopOfHead			pRightAuricularis			pLeftAuricularis			pBackOfHead			pRightAcromion			pLeftAcromion			pRightArmLatEpicondyle			pRightArmMedEpicondyle			pLeftArmLatEpicondyle			pLeftArmMedEpicondyle			pRightUlnarStyloid			pRightRadialStyloid			pRightOlecranon			pLeftUlnarStyloid			pLeftRadialStyloid			pLeftOlecranon			pRightTopOfHand			pRightPinky			pRightBallHand			pLeftTopOfHand			pLeftPinky			pLeftBallHand			pRightGreaterTrochanter			pRightKneeLatEpicondyle			pRightKneeMedEpicondyle			pRightPatella			pLeftGreaterTrochanter			pLeftKneeLatEpicondyle			pLeftKneeMedEpicondyle			pLeftPatella			pRightTibialTub			pRightLatMalleolus			pRightMedMalleolus			pLeftTibialTub			pLeftLatMalleolus			pLeftMedMalleolus			pRightHeelFoot			pRightFirstMetatarsal			pRightFifthMetatarsal			pRightPivotFoot			pRightHeelCenter			pRightToe			pLeftHeelFoot			pLeftFirstMetatarsal			pLeftFifthMetatarsal			pLeftPivotFoot			pLeftHeelCenter			pLeftToe			
		X1	Y1	Z1	X2	Y2	Z2	X3	Y3	Z3	X4	Y4	Z4	X5	Y5	Z5	X6	Y6	Z6	X7	Y7	Z7	X8	Y8	Z8	X9	Y9	Z9	X10	Y10	Z10	X11	Y11	Z11	X12	Y12	Z12	X13	Y13	Z13	X14	Y14	Z14	X15	Y15	Z15	X16	Y16	Z16	X17	Y17	Z17	X18	Y18	Z18	X19	Y19	Z19	X20	Y20	Z20	X21	Y21	Z21	X22	Y22	Z22	X23	Y23	Z23	X24	Y24	Z24	X25	Y25	Z25	X26	Y26	Z26	X27	Y27	Z27	X28	Y28	Z28	X29	Y29	Z29	X30	Y30	Z30	X31	Y31	Z31	X32	Y32	Z32	X33	Y33	Z33	X34	Y34	Z34	X35	Y35	Z35	X36	Y36	Z36	X37	Y37	Z37	X38	Y38	Z38	X39	Y39	Z39	X40	Y40	Z40	X41	Y41	Z41	X42	Y42	Z42	X43	Y43	Z43	X44	Y44	Z44	X45	Y45	Z45	X46	Y46	Z46	X47	Y47	Z47	X48	Y48	Z48	X49	Y49	Z49	X50	Y50	Z50	X51	Y51	Z51	X52	Y52	Z52	X53	Y53	Z53	X54	Y54	Z54	X55	Y55	Z55	X56	Y56	Z56	X57	Y57	Z57	X58	Y58	Z58	X59	Y59	Z59	X60	Y60	Z60	X61	Y61	Z61	X62	Y62	Z62	X63	Y63	Z63	X64	Y64	Z64	
1	0.0	0.0	1250.01021	7.654105012890054E-14	96.47652000000001	1337.47838	129.08093000000008	81.77256999999999	1327.24954	-144.8310099999999	66.66179	1413.14852	103.85755000000009	54.51503999999999	1404.72135	-122.22295999999992	-65.20883	1208.97863	61.77984000000008	-71.31126	1204.79411	-51.26040999999992	-61.14054	1286.62479	1.9179100000000826	-1.3948400000000003	1376.06899	-4.1264099999999155	64.802	1475.97449	-10.345069999999913	126.34937	1566.87164	-15.51760999999991	394.39136	1609.99548	-33.999249999999925	269.78554	1711.12147	-25.920799999999915	196.3239	1650.32964	-20.74825999999991	297.62425	1522.81791	-27.199399999999926	315.11788	1746.6318	-28.478009999999912	563.16714	1849.79194	-71.54372999999991	495.86606	1792.7778	16.912450000000078	467.03934	1790.22059	-124.54769999999992	449.5457	1838.05202	-48.180139999999916	327.32274	1711.93513	187.3736700000001	309.59663	1684.44513	-246.0151199999999	427.92566	1434.18737	150.75909000000004	410.6645	1433.25748	92.64070000000005	406.59622	1411.28873	-198.70675999999995	392.06662	1412.91604	-139.89094999999995	515.21948	1194.50715	113.73768000000004	563.63209	1215.42977	124.72205000000004	392.76404	1429.18919	118.85210000000005	499.81811	1174.68878	-183.18914999999996	547.82389	1197.47119	-192.08125999999993	372.82944	1406.4649	-167.20658999999995	655.92409	1061.06734	220.26868000000002	578.45228	1089.19664	163.54513000000003	555.20493	1157.42762	122.97850000000004	670.80239	1079.2584	-294.42774	586.00767	1085.65142	-241.83059999999998	547.94013	1142.78179	-195.62647999999996	46.087880000000006	1243.15224	160.1742700000001	426.12399	1105.46979	76.25132000000005	415.77892	1106.80651	-3.0802699999999574	432.63325	1149.34917	33.069360000000046	2.8477999999999897	1218.85876	-166.9741199999999	218.69948	867.01006	-165.46303999999995	230.7881	867.475	-86.42203999999995	261.30026	893.04709	-128.96468999999996	451.1149	1056.41787	26.560100000000034	209.16807	714.79801	82.58622000000003	198.70676	717.9364	16.621860000000034	263.10193	816.09835	-128.38350999999997	32.48817999999999	462.68046	-111.93600999999997	44.11185	464.48213	-46.08787999999997	131.17319	653.77371	34.929150000000035	284.66385	597.28264	-21.155089999999984	285.30315	577.75486	58.11838000000002	306.16765	578.68475	14.994540000000017	168.36896	638.77916	30.91898000000003	382.47709	545.84787	6.218670000000011	-36.44023	411.5944	-45.27421999999997	116.75983	333.54141	-27.199399999999986	95.08168	314.82729	-103.68319999999999	125.88442	312.44443	-67.06862	-1.9179100000000031	391.48544	-50.15616999999998	196.61449	269.08812	-76.54191	
2	0.017	0.0	1250.01021	7.654105012890054E-14	95.60474000000002	1337.82709	129.4877600000001	81.30761999999999	1328.41191	-144.42418999999992	65.20883	1413.32287	104.49686000000008	53.410799999999995	1405.53501	-121.64177999999991	-64.97635	1208.22309	61.54737000000008	-70.84631	1204.38728	-51.492889999999925	-61.43113	1286.10173	1.9760300000000826	-2.3828500000000004	1376.1271	-3.7195799999999157	63.40716	1476.43944	-9.705769999999912	124.72205	1567.56906	-14.820189999999911	392.6478	1611.04161	-33.12747999999992	267.92575	1711.99325	-25.16525999999991	194.52223	1651.1433	-20.050839999999912	295.93881	1523.7478	-26.327629999999925	313.25809	1747.5617	-27.722469999999912	561.71418	1850.08253	-70.78818999999991	494.18062	1793.4171	17.667990000000078	465.3539	1790.85989	-123.79215999999991	447.97651	1838.80756	-47.42459999999991	325.34672	1712.63255	188.1873300000001	307.96932	1685.14255	-245.1433499999999	425.94964	1435.00103	151.68898000000004	408.7466	1434.07113	93.57060000000006	404.79455	1411.92803	-198.24180999999993	390.38119	1413.55534	-139.42599999999993	513.7084	1195.43705	114.49322000000004	562.00478	1216.4759	125.53571000000004	390.84613	1429.94473	119.72387000000006	498.36515	1175.44432	-182.60795999999993	546.31281	1198.28485	-191.50007999999994	371.08588	1407.1042	-166.74163999999993	654.41301	1062.05536	220.96610000000004	576.9412	1090.18465	164.30067000000003	553.63573	1158.41564	123.67592000000005	669.40755	1080.01394	-293.73031	584.55471	1086.40696	-241.13317999999998	546.48717	1143.53733	-194.98717999999997	45.390460000000004	1242.10611	160.4067400000001	422.69501	1096.05461	78.57606000000004	412.81488	1097.50757	-0.8136599999999582	430.42475	1139.70152	35.394100000000044	3.42897999999999	1219.96301	-167.26470999999992	223.75578	870.84587	-168.95013999999995	235.72817	870.72963	-89.85101999999996	265.94973	897.11538	-132.16120999999998	449.42947	1047.87447	28.303650000000037	216.72346	699.68723	83.28364000000003	205.7972	702.99998	17.37740000000003	266.00785	818.65556	-131.52189999999996	23.421709999999994	473.72295	-107.98395999999997	35.97528	475.81521	-42.310179999999974	140.41402	636.91937	35.21974000000003	295.5901	584.96154	-20.573909999999984	296.63623	565.25941	58.64145000000001	317.50073	566.88672	15.575730000000016	178.01661	622.97096	31.32581000000003	394.68195	536.31645	7.032320000000009	-46.02976	425.36845	-40.79910999999997	105.25239	343.71212	-22.201219999999985	83.05117	324.88177	-98.45253999999998	113.7958	322.03397	-61.83795999999999	-11.972390000000004	404.38772	-45.50668999999998	183.42162	276.9341	-71.02067	
3	0.033	0.0	1250.01021	7.654105012890054E-14	94.67485000000002	1338.1758	129.95271000000008	80.90078999999999	1329.57428	-144.0754699999999	63.697750000000006	1413.49723	105.13616000000009	52.306549999999994	1406.40678	-121.06058999999992	-64.74388	1207.52567	61.31490000000008	-70.43948	1203.98045	-51.725359999999924	-61.77984	1285.57866	1.9760300000000826	-3.31275	1376.24334	-3.3708699999999157	62.01232	1476.90438	-9.124589999999912	123.03662	1568.26648	-14.12276999999991	390.84613	1612.02963	-32.25569999999992	266.06596	1712.92314	-24.46783999999991	192.72056	1652.01507	-19.295299999999912	294.19526	1524.67769	-25.397729999999925	311.45642	1748.54971	-27.02504999999991	560.20311	1850.43124	-69.97452999999992	492.43707	1793.99829	18.48165000000008	463.66847	1791.4992	-122.97849999999991	446.46543	1839.5631	-46.66905999999992	323.42881	1713.32997	189.0591000000001	306.342	1685.78186	-244.3296899999999	424.03173	1435.81468	152.56076000000004	406.88681	1434.88479	94.50049000000006	402.99288	1412.56733	-197.77685999999994	388.63764	1414.19465	-138.96105999999995	512.1392	1196.36694	115.24876000000005	560.37746	1217.46391	126.34937000000004	388.92823	1430.70027	120.59565000000006	496.85407	1176.19986	-182.02677999999995	544.74362	1199.04039	-190.86076999999995	369.34233	1407.68539	-166.27669999999995	652.90193	1063.10149	221.66352000000003	575.43012	1091.17267	164.99809000000002	552.06653	1159.40365	124.43146000000004	667.95459	1080.76948	-293.03289	583.10175	1087.1625	-240.49386999999996	544.97609	1144.29287	-194.34787999999998	44.63492000000001	1241.05998	160.63921000000008	419.09167	1086.69755	80.90079000000004	409.61837	1088.20863	1.4529600000000416	427.98378	1130.11198	37.660710000000044	4.010169999999989	1221.06725	-167.4971799999999	228.69584	874.85604	-172.37912999999995	240.66823	874.1005	-93.28000999999996	270.5992	901.2999	-135.29959999999997	447.68591	1039.33107	30.047200000000036	224.4532	684.86704	83.86483000000003	213.062	688.35414	18.074820000000027	268.85565	821.27089	-134.66029999999998	14.762069999999992	485.34663	-103.91566999999998	28.245529999999995	487.72948	-38.47436999999997	149.71296	620.12316	35.51033000000003	306.45824	572.69856	-19.99271999999998	307.85308	552.88019	59.22263000000002	328.83382	555.14681	16.215030000000013	187.72238	607.279	31.674520000000026	406.82869	526.78504	7.787860000000007	-55.50306	439.20063	-36.323989999999974	93.74495	353.99908	-17.144919999999985	70.96255	335.05249	-93.28000999999999	101.70717	331.73974	-56.66541999999998	-21.968750000000004	417.29	-40.91533999999997	170.17063	284.8382	-65.4413	
4	0.05	0.0	1250.01021	7.654105012890054E-14	93.97743000000001	1338.40827	130.3014200000001	80.49395999999999	1330.50417	-143.72675999999993	62.53538000000001	1413.61346	105.71734000000008	51.37664999999999	1407.1042	-120.53752999999992	-64.51141	1206.88637	61.14054000000008	-70.09077	1203.63174	-51.95783999999992	-62.01232	1285.17183	2.0341400000000824	-4.12641	1376.30146	-3.022159999999915	60.84995	1477.25309	-8.601519999999914	121.64178	1568.78955	-13.483469999999912	389.45129	1612.78517	-31.558279999999925	264.55489	1713.62056	-23.82853999999991	191.2676	1652.7125	-18.65599999999991	292.85854	1525.43323	-24.700309999999927	309.94534	1749.30525	-26.385749999999913	559.04074	1850.60559	-69.33522999999991	491.04223	1794.46323	19.120950000000082	462.33175	1792.02226	-122.39731999999991	445.24494	1840.14428	-46.08787999999991	321.85961	1713.85304	189.75652000000008	305.00528	1686.2468	-243.63226999999992	422.52065	1436.39587	153.31630000000007	405.31761	1435.46597	95.19791000000005	401.53992	1413.0904	-197.48626999999993	387.24279	1414.60147	-138.61234999999994	510.91872	1197.12248	115.88806000000004	559.15698	1218.21945	127.04679000000004	387.41715	1431.28145	121.35119000000006	495.6917	1176.78105	-181.44559999999996	543.58125	1199.67969	-190.33770999999993	367.88937	1408.15033	-165.98610999999994	651.73956	1063.85703	222.30282000000003	574.26776	1091.9282	165.63740000000004	550.84605	1160.15919	125.12888000000004	666.85034	1081.35066	-292.39359	581.93938	1087.74368	-239.85456999999997	543.81372	1144.93217	-193.76668999999998	43.93750000000001	1239.89761	160.8716900000001	414.79091	1076.23624	82.76058000000005	405.66632	1077.92167	3.312750000000041	424.90351	1119.36008	39.57862000000004	4.59134999999999	1222.28774	-167.7877799999999	234.62392	879.62175	-176.04058999999998	246.48007	878.22691	-96.94146999999995	276.00421	906.29809	-138.61234999999996	445.18682	1029.79965	31.558280000000035	231.42741	669.34943	84.21354000000002	219.86185	672.77842	18.481650000000027	272.63334	824.87423	-137.85680999999997	7.671629999999994	498.07455	-100.31232999999997	22.026869999999995	500.80612	-35.04538999999997	158.3726	602.74576	35.68469000000003	316.4546	559.5638	-19.527779999999982	318.08192	539.57108	59.629460000000016	339.12077	542.53512	16.621860000000012	196.67261	590.88961	31.906990000000025	417.9293	516.14937	8.310930000000008	-63.40716	453.9627	-32.488179999999964	83.80671	365.4484	-12.786039999999982	60.55935999999999	346.44369	-88.74676999999998	91.18775	342.72411	-52.074069999999985	-30.395920000000004	431.29653	-36.90516999999997	158.60507	294.13714	-60.61746999999998	
